<svg xmlns="http://www.w3.org/2000/svg" viewBox="0 0 433.16 333.7"><defs><style>.cls-1{fill:#fff;}</style></defs><g id="Layer_2" data-name="Layer 2"><g id="Layer_1-2" data-name="Layer 1"><path class="cls-1" d="M333.75,80.51a30,30,0,0,1,4.35-1.82,144.32,144.32,0,0,0-221.61-8.34A17.46,17.46,0,0,1,121.13,72c1.26-1.36,2.53-2.7,3.85-4a139.67,139.67,0,0,1,197.67,0A140.68,140.68,0,0,1,333.75,80.51Z"/><path class="cls-1" d="M88.51,79.7a55.8,55.8,0,0,1,17.25-8.78c.77-.22,1.54-.4,2.28-.54s1.59-.27,2.37-.34a150.35,150.35,0,0,1,16.75-16.73,154.28,154.28,0,0,1,12.55-9.61q3.27-2.23,6.66-4.31A149.76,149.76,0,0,1,164,30.19a147.66,147.66,0,0,1,15.05-5.66c1.28-.41,2.57-.79,3.87-1.17A149.11,149.11,0,0,1,343.3,77.63q.7-.06,1.38-.06c5.64,0,10,2.9,12,7.51l2.23-5.93.81-2.17h0a12.62,12.62,0,0,1-1.62-4.18c-.06-.27-.12-.54-.16-.82a12.79,12.79,0,0,1-.12-1.64h0a13.15,13.15,0,0,1,.26-2.59h0l-.7-.92h0a168.12,168.12,0,0,0-15.59-18,166.85,166.85,0,0,0-236,0A168,168,0,0,0,84.37,75.18h0c-.23.34-.46.68-.68,1a19.19,19.19,0,0,1,3.83,2.56C87.87,79.07,88.2,79.38,88.51,79.7Z"/><path class="cls-1" d="M428.64,168.78l-.23-.2-.2-.17-.57-.5h0c-7.86-6.64-53.46-42.5-109.61-30.75-61.77,12.94-103.68,59.49-150.74,61.42-27,1.11-34.83-6.91-36.59-13.76-.09-.38-.17-.76-.24-1.13v0c-.06-.35-.1-.7-.13-1,0-.08,0-.16,0-.24,0-.28,0-.55,0-.82v-.23c0-.3,0-.6,0-.89v-.07c0-.32.05-.62.09-.92a.88.88,0,0,1,0-.16c0-.23.06-.44.1-.65a2,2,0,0,1,0-.24c0-.18.07-.36.11-.53s0-.13,0-.19c.06-.22.11-.43.16-.62l.15-.44.42-1.13h0l27.91-74.56c3.25-8.77,5-15.07,5-19.81,0-.52,0-1-.06-1.51,0-.15,0-.3-.05-.45,0-.33-.08-.67-.14-1a4.42,4.42,0,0,0-.1-.5c-.06-.29-.12-.58-.2-.87l-.15-.49c-.09-.27-.18-.53-.28-.79,0-.07-.05-.15-.08-.22a.13.13,0,0,1,0,.06c-1.81-4.43-6-7-12.36-5.74C144,71,132.36,77.29,123,88.31a14.22,14.22,0,0,0-.23-2.09h0c0-.06,0-.12,0-.18-.06-.33-.14-.66-.22-1,0-.13-.06-.26-.1-.38a9.52,9.52,0,0,0-.39-1.1.57.57,0,0,0,0-.14v0c-1.86-4.47-6.19-7-12.54-5.81-6.51,1.26-16.13,6.52-23.86,14.25a7.82,7.82,0,0,0,0-2.23h0s0,0,0-.07a8.64,8.64,0,0,0-.63-2.15s0-.07,0-.1v0a9.5,9.5,0,0,0-4.66-4.63c-5-2.52-11.7,1.62-11.7,1.62C37.2,102.07-1.4,117.68,0,143.11a19.85,19.85,0,0,0,.65,4.12s0,0,0,0l.06.17a14.64,14.64,0,0,0,.71,2l.18.41a13.25,13.25,0,0,0,1.09,1.87.87.87,0,0,1,.09.11,11.23,11.23,0,0,0,1.29,1.46l.38.36a13.39,13.39,0,0,0,1.69,1.28c13.59,8.53,25.36-9.92,22.48-8.24a4,4,0,0,1-.63.3,2.47,2.47,0,0,1-.36.11c-2.72.83-6-1-7.18-5.8a15.47,15.47,0,0,1-.31-1.69L20.1,139c-.06-.64-.11-1.31-.11-2a9.24,9.24,0,0,1,.06-1.05c0-.12,0-.23.05-.35s.06-.45.11-.67.07-.27.11-.41.09-.4.16-.6a3.16,3.16,0,0,1,.16-.43q.09-.28.21-.57c.06-.14.13-.29.2-.43s.17-.37.26-.54.17-.3.26-.44l.31-.53c.09-.15.2-.29.3-.44l.35-.51.34-.44c.13-.16.26-.33.41-.5s.25-.29.38-.43.29-.33.44-.5l.43-.43c.16-.17.32-.33.49-.49l.45-.42.54-.49.48-.42.59-.49c.17-.14.34-.28.52-.41s.41-.33.62-.49l.54-.4.68-.5.56-.39c.24-.17.47-.34.72-.5l.58-.39.77-.5.6-.39.8-.5.62-.38.85-.51.62-.37.92-.53c.19-.12.39-.23.59-.34l1-.57.57-.31,1.08-.6.52-.28,1.18-.64.47-.25,1.3-.69.36-.19,1.5-.78.19-.1c4.73-2.45,9.82-5,15-7.7L30.81,185.64A37,37,0,0,1,24.33,197c-.57.65-1,1.14-1.4,1.47l-.06.06-.39.35,0,0-.12.09s24.55-2.45,30.44-18.65c7.25-20,20.17-54.24,23-61.82,4-10.84,15.54-17.32,19.74-18.13a5.55,5.55,0,0,1,1-.11h.25a2.48,2.48,0,0,1,.56.05l.24,0a3,3,0,0,1,.45.16l.17.09a2.08,2.08,0,0,1,.4.32,2.54,2.54,0,0,1,.64,1.84c0,2.84-2.85,10.31-6.24,19.1,0,0-16.32,44.16-20.29,54.44a45.46,45.46,0,0,1-7.25,12.82l-.62.72-.12.13c-.38.41-.67.7-.82.85l-.06.05-.09.08s23.75-.28,31-20.14C101.31,152.57,112,124.18,115,116c4.58-12.32,17.73-22.82,22.07-23.66a6,6,0,0,1,.9-.1h.24a3.08,3.08,0,0,1,.54.06l.22,0a2.35,2.35,0,0,1,.44.17l.16.08A2,2,0,0,1,140,93a2.56,2.56,0,0,1,.64,1.85c0,2.84-2.84,10.31-6.23,19.1l-23.45,62.68a52.78,52.78,0,0,0-1.59,5.52h0s-1.92,7.46-.43,14.23c.11.52.25,1,.4,1.52l0,0,.09.31a.49.49,0,0,0,0,.11c2.89,9.3,12.64,19.77,40.41,20.41,46.84,1.06,91.44-37.15,153.65-45.48,1.57-.21,3.12-.39,4.66-.54.51-.06,1-.09,1.52-.14,1-.09,2-.18,3-.25l1.79-.1c.88-.05,1.77-.1,2.64-.13.64,0,1.26,0,1.89-.05.81,0,1.63,0,2.42,0l1.93,0c.76,0,1.52,0,2.27,0l1.94.08,2.15.1,1.92.14c.69,0,1.37.1,2.05.17l1.91.19,1.94.22,1.89.26c.62.08,1.23.17,1.84.27s1.25.2,1.87.31l1.75.31c.62.11,1.23.24,1.84.36l1.66.35,1.81.41,1.56.38,1.8.47,1.46.4,1.77.51,1.37.42,1.74.56,1.28.43,1.72.61,2.33.86c1.17.46,2.3.93,3.42,1.4l.92.4c1,.43,1.93.86,2.87,1.3l1.84.9,1.45.72,1.72.91c.46.25.92.49,1.36.74l1.6.9,1.26.75,1.47.88,1.9,1.21.87.57c.54.36,1.08.72,1.59,1.08l.79.55.94.68,1.46,1.08.69.53c.46.35.89.7,1.3,1l.57.46c.41.33.78.64,1.14,1l.46.39,1,.84c.11.11.23.22.34.31l.78.72.25.23.58.58.14.13.39.4,0,0,.15.16L428.84,169l-.09-.08Z"/><path class="cls-1" d="M86.63,211.78l-.06-.18a2.25,2.25,0,0,1,.08.24c.34,1,.71,2,1.07,3.06.3.86.59,1.71.91,2.56.38,1,.78,2,1.17,3s.68,1.7,1,2.54.85,1.94,1.28,2.91.75,1.66,1.14,2.49.91,1.89,1.38,2.84.83,1.63,1.25,2.44,1,1.85,1.48,2.76.9,1.61,1.36,2.41,1,1.79,1.58,2.68,1,1.56,1.46,2.34,1.1,1.75,1.67,2.61,1,1.54,1.57,2.3,1.16,1.69,1.76,2.51,1.13,1.53,1.7,2.29,1.19,1.6,1.81,2.39,1.45,1.78,2.18,2.67c1,1.27,2.11,2.51,3.2,3.74.68.77,1.35,1.55,2,2.31s1.31,1.37,2,2.06,1.38,1.45,2.09,2.16,1.37,1.33,2.06,2,1.43,1.38,2.16,2.05,1.42,1.29,2.14,1.92,1.5,1.32,2.26,2,1.46,1.22,2.2,1.83l2.35,1.89,2.25,1.72c.82.62,1.64,1.22,2.48,1.82s1.5,1.08,2.27,1.61,1.74,1.17,2.62,1.75l2.27,1.49c.93.58,1.87,1.15,2.81,1.71.74.45,1.47.9,2.22,1.33,1.05.6,2.12,1.18,3.18,1.76.67.36,1.32.73,2,1.08q2.58,1.35,5.22,2.6c.39.19.79.35,1.18.53,1.4.65,2.82,1.29,4.25,1.89.69.3,1.39.56,2.09.84,1.14.47,2.29.93,3.45,1.37.77.29,1.56.56,2.34.83,1.1.39,2.2.78,3.32,1.15.81.27,1.64.52,2.47.77,1.09.34,2.19.67,3.29,1l2.55.69,3.32.83c.87.2,1.73.4,2.6.58q1.69.38,3.39.69c.87.17,1.73.33,2.6.48,1.17.21,2.34.38,3.51.56.86.12,1.71.25,2.57.36,1.23.16,2.47.29,3.7.42.82.08,1.63.18,2.45.25,1.37.12,2.75.2,4.13.28.7,0,1.39.09,2.09.12,2.07.09,4.14.14,6.23.14h.05A144.32,144.32,0,0,0,366.56,188.32h0l-.78-.33h0c-1-.45-2.1-.9-3.21-1.33l-.34-.13A139.83,139.83,0,0,1,95,221.26q-2.37-5.62-4.23-11.4c-.45-1.37-.87-2.75-1.27-4.14-.07-.26-.15-.53-.22-.8-.32-1.12-.62-2.25-.91-3.37-.1-.37-.19-.74-.28-1.11-.27-1.07-.51-2.14-.75-3.21-.08-.37-.17-.75-.25-1.12-.3-1.41-.59-2.83-.84-4.25a2.39,2.39,0,0,1-.22.12h0a40.84,40.84,0,0,1-4,2.1A144.9,144.9,0,0,0,86.63,211.78Z"/><path class="cls-1" d="M176.89,103.87c.05.19.1.37.16.56s.11.33.17.5.15.36.23.53.15.32.24.48.18.33.28.49.21.31.31.46.22.31.33.45l.39.44c.12.14.24.28.37.41s.36.33.54.49l.56.45c.23.17.46.34.7.5l.44.26.62.35.5.24c.22.1.43.2.66.29l.54.2.69.23.57.16.75.17.59.12.8.11.6.07.88,0,.57,0c.34,0,.67,0,1,0a4.1,4.1,0,0,0,.5,0c.52,0,1-.09,1.56-.17a20.88,20.88,0,0,0,4.06-1,22,22,0,0,0,2.52-1.13,21.46,21.46,0,0,0,4.4-3.07,17.55,17.55,0,0,0,3.18-3.85A12.36,12.36,0,0,0,208,99.39v0a1.27,1.27,0,0,0,.06-.18l12.21-43.55a14.56,14.56,0,0,0,2.59,3,12.62,12.62,0,0,0,3,2A17.53,17.53,0,0,0,234.93,62a36.89,36.89,0,0,0,4.11-.62c2.12-.43,4.3-1,6.54-1.7l2.25-.69c2.27-.73,4.57-1.5,6.88-2.26,1.55-.5,3.1-1,4.64-1.45,2.32-.69,4.63-1.31,6.91-1.77,6.82-1.39,13.33-1.4,18.78,2.1,0-.11,0-.23,0-.34-.52-.7-1.06-1.34-1.6-2h0c-18.2-20.39-45.87,7.33-56.4-23.25l-.06.38a2.44,2.44,0,0,0-1.82-1.84,2.41,2.41,0,0,0-2.88,1.83l-17.2,59.77c-2.93-2.56-7.61-3.76-12.67-3-8.81,1.33-15.83,7.69-15.83,14.54a8.57,8.57,0,0,0,.24,2l0,0Z"/><path class="cls-1" d="M180.08,239.72l.14-.39c2.07-5.25,5.09-6.86,5.09-6.86l-.61-1.69h0l-1.22-3.35c-6.28,1.27-10.61,6.92-12.37,11.61L165,255.41c-.44,1.15-1.13,3-2.07,5-3.52-1.48-6-1.87-9.11-1.23-8.1,1.63-11,7.87-11,12.08a8.62,8.62,0,0,0,.2,1.83h0l.09.35q.08.3.18.6c.06.16.11.32.17.47s.11.23.16.34l.19.38.19.32.23.36.23.3a3,3,0,0,0,.28.34,3.2,3.2,0,0,0,.25.27,3.55,3.55,0,0,0,.34.33l.26.23c.14.11.3.22.45.32a2.07,2.07,0,0,0,.24.17q.36.22.75.42l.22.09c.21.09.42.18.64.25l.34.1.59.16.4.07c.21,0,.41.07.63.09l.43,0c.23,0,.46,0,.7,0h.44l.82-.06.4,0c.42,0,.85-.12,1.3-.21,5.22-1.05,9.17-4.24,12.19-8.05,5.4,3,10.24,4.71,15.76,3.59,10.12-2,14.89-11.8,14.89-19.34,0-.54,0-1.06-.07-1.56,0-.16,0-.29-.06-.44,0-.34-.09-.68-.15-1,0-.16-.07-.3-.1-.44-.07-.3-.14-.6-.22-.88,0-.13-.08-.26-.13-.39s-.18-.54-.28-.79l0-.13v0a11.29,11.29,0,0,0-4.79-5.66s.42-.19,1.06-.55h0l.24-.14.23-.14.64-.41.19-.14c.18-.12.36-.24.54-.38l.27-.2.54-.43.26-.23c.23-.19.45-.39.68-.61a.86.86,0,0,0,.14-.13c.28-.26.55-.55.82-.85a2,2,0,0,0,.19-.22c.2-.23.41-.48.61-.73l.24-.33c.18-.24.36-.5.53-.77.07-.11.15-.22.22-.34.21-.34.41-.71.6-1.08L199,236a13.94,13.94,0,0,0,.56-1.31c0-.13.09-.26.13-.39a10.52,10.52,0,0,0,.31-1c0-.16.08-.33.12-.5.08-.36.14-.72.2-1.1,0-.16,0-.32.07-.49a14.4,14.4,0,0,0,0-3.21c0-.17-.05-.34-.07-.51s-.1-.63-.16-.94-.09-.39-.14-.58-.15-.54-.23-.8-.13-.38-.21-.57-.07-.23-.12-.34,0,.06,0,.1c-1.88-4.57-6.43-7.42-13-7.42v0a27.2,27.2,0,0,0-5.41.55c-14.95,3-24.31,15.41-24.31,26.46a18.18,18.18,0,0,0,.74,5.13l-.06-.15c.05.2.12.38.18.57l.1.34c.15.45.31.86.46,1.23l.11.24c.13.3.26.57.38.82l.12.25c.15.27.28.51.4.71l.06.09c.1.17.18.3.25.4l.06.09.09.12,6.66-6.3a10.2,10.2,0,0,1-.45-.93h0l-.17-.44a13,13,0,0,1-.51-1.62c-.06-.27-.12-.55-.17-.84,0-.12,0-.23,0-.35a8.55,8.55,0,0,1-.1-1.25c0-5.65,5.66-14.64,16-16.73.6-.12,1.17-.2,1.72-.26l.41,0c.51,0,1-.06,1.48-.05h.06a11.82,11.82,0,0,1,1.38.12l.29.05a9.53,9.53,0,0,1,1.17.29h0a6.8,6.8,0,0,1,1.06.47l.17.09a7.15,7.15,0,0,1,.88.6h0a5.3,5.3,0,0,1,.74.76.76.76,0,0,1,.08.11,4.83,4.83,0,0,1,.55.86,6.77,6.77,0,0,1,.71,3.1c0,6.29-6.91,10.63-12.13,10l.62-1.65Zm-26.43,31.37c-1.63.33-3.33-.15-3.33-1.91a2.48,2.48,0,0,1,0-.27,3.58,3.58,0,0,1,.11-.53h0a3.59,3.59,0,0,1,.2-.51l0,0a3,3,0,0,1,.28-.44l.07-.09a3.8,3.8,0,0,1,.33-.37c0-.05.1-.09.15-.14l.34-.28.27-.17a3.79,3.79,0,0,1,.34-.2c.13-.07.27-.12.41-.18s.19-.09.29-.12a6.07,6.07,0,0,1,.79-.22,5.94,5.94,0,0,1,1.18-.1h.35a6.35,6.35,0,0,1,.86.12l.35.07a12.44,12.44,0,0,1,2.6,1C157.67,269,155.79,270.65,153.65,271.09Zm26.07-5c-3.4.68-6.41-.4-9.3-2,.19-.38.37-.75.55-1.13h0a3.54,3.54,0,0,1,.16-.34c.13-.28.26-.55.38-.82s.28-.59.41-.89.23-.49.33-.74.29-.65.42-1,.17-.38.24-.57c.21-.5.4-1,.58-1.44,1.25-3,2.38-6.13,3.45-9a19.32,19.32,0,0,1,2,.13l.56.09c.4.06.79.12,1.16.21l.54.13c.34.1.66.2,1,.32.14.05.29.1.42.16a9.67,9.67,0,0,1,1.07.52l.09.05a9,9,0,0,1,1,.67l.24.22c.19.17.38.35.55.53l.22.26c.15.18.29.37.42.55l.16.24c.15.24.28.48.4.72a8.42,8.42,0,0,1,.78,3.51A9.7,9.7,0,0,1,179.72,266.07Z"/><path class="cls-1" d="M365.29,71.07h0a5.2,5.2,0,0,0,.33,1.23v0a5.55,5.55,0,0,0,.6,1.06l.06.08a5.6,5.6,0,0,0,.81.88l.12.1a6.65,6.65,0,0,0,1,.71l.16.09a7.7,7.7,0,0,0,1.17.52l.2.07a8.92,8.92,0,0,0,1.33.33l.19,0a12,12,0,0,0,1.5.12h.13a12.08,12.08,0,0,0,1.68-.12c4.39-.66,8.28-3.86,9.17-7.26v0l0-.11L391,43.12c7.46,11.43,26.85-7.41,38.29-.06l0-.2c-.33-.44-.67-.85-1-1.23s-.43-.44-.64-.65-.27-.28-.4-.4h0c-10.74-9.86-26.21,4.85-32.22-12.61a1.85,1.85,0,0,0,0,.23,1.42,1.42,0,0,0-2.78,0L382.07,63.51a9.31,9.31,0,0,0-7.49-1.78c-5.2.79-9.35,4.55-9.35,8.6a4.52,4.52,0,0,0,.06.74Z"/><path class="cls-1" d="M432.28,90.82a5.38,5.38,0,0,0-3.75-1.3C423,100.17,416,107.89,412.26,108.61c-1.71.33-2.25-1-2.41-2.36a10.1,10.1,0,0,1-.06-1.21c0-3,.82-7.26,1.48-11.6L428,72.87l-5.12-3.72L412.26,82.26a20.17,20.17,0,0,0-.12-2.26h0a13.57,13.57,0,0,0-.31-1.68l0-.09a9.74,9.74,0,0,0-.51-1.47h0c-1.29-2.87-3.88-4.13-8-3.34-10,1.93-14.53,13.55-20.56,25h0c-5.87,11.29-11.56,18.18-14.87,18.82-.77.15-1.56-.06-1.49-1.94,0-.1,0-.22,0-.34s0-.22,0-.35,0-.25.06-.39,0-.28.07-.43,0-.29.09-.45.07-.35.12-.53.07-.32.12-.5.11-.42.17-.64l.15-.55c.07-.25.16-.52.24-.78l.18-.58c.1-.32.22-.66.34-1,.06-.18.12-.34.18-.53.19-.54.4-1.12.63-1.73L379,79.21l-13.13,2.54L357.5,104c-5.79,10.84-11.22,17.4-14.45,18-.77.15-1.59,0-1.54-1.91,0-.11,0-.23,0-.36l0-.32c0-.13,0-.27.05-.42s.05-.26.07-.41.06-.3.09-.46.07-.33.11-.51l.12-.52c.05-.2.11-.41.17-.62l.15-.56q.1-.37.24-.78c.06-.19.11-.38.18-.58s.22-.67.33-1l.18-.53q.28-.83.63-1.74l4-10.62c1.66-4.61,2.48-7.5,2.48-9.81a7.81,7.81,0,0,0-.17-1.65c0-.13-.07-.24-.1-.36a6.28,6.28,0,0,0-.37-1.06.88.88,0,0,1-.05-.15v.07c-1.1-2.2-3.55-3.21-7.32-2.48-7.1,1.37-13.54,7.74-15.53,10.11a7.84,7.84,0,0,0-.31-2l0,0c0-.12-.1-.23-.14-.35s-.14-.39-.22-.57l0-.12v0c-1.11-2.21-3.55-3.25-7.31-2.53-6.85,1.33-13.05,7.57-13.46,8.06l1.27-3.46h0l.46-1.25L294,95.66l-8.32,22.18c-5.8,10.87-11.24,17.45-14.47,18.08-.82.15-1.6-.08-1.54-2,0-.1,0-.22,0-.33s0-.24,0-.36,0-.25,0-.39.05-.28.07-.44.05-.28.09-.44.07-.35.11-.53.08-.32.12-.5.11-.42.17-.64l.15-.54c.07-.25.16-.51.24-.78s.11-.37.18-.58l.32-1c.07-.18.12-.35.19-.55.19-.54.39-1.11.61-1.72l10.24-27.25-13.13,2.54-2.31,6.06S265,100.2,257,101.75c-10.62,2-17.27,14.83-20.48,25.65-5.71,10.9-11.17,17.4-18.75,22.74l1.11-2.95h0L234,107.28l-1.31.25h0l-11.82,2.29-2.32,6.07c-.16-.47-2.23-6.26-9.82-4.79-10.67,2.06-17.4,15-20.62,25.92-5.87,10.93-14.5,17.79-22.66,19.37-6.34,1.23-8-1.58-8.26-4a2,2,0,0,1,0-.34c0-.11,0-.21,0-.31s0-.45,0-.66a1.93,1.93,0,0,0,0-.24l0-.32c0-.07,0-.14,0-.21a2,2,0,0,1,0-.26,1.11,1.11,0,0,0,0-.17c0-.07,0-.14,0-.19l0-.14a.24.24,0,0,1,0-.09v-.08c15.28-1,21.89-7,25.36-15.23.3-.73.54-1.43.76-2.11.07-.21.12-.41.18-.62.14-.46.25-.92.35-1.36.05-.21.09-.42.13-.63.09-.46.15-.9.19-1.32,0-.15,0-.3,0-.44a13.08,13.08,0,0,0,0-1.53c0-.18,0-.36-.05-.53s-.08-.61-.13-.89-.09-.39-.14-.58a6.39,6.39,0,0,0-.24-.74,5.1,5.1,0,0,0-.19-.5s0,0,0-.07v0c-1.92-4.19-7.13-5.51-12.88-4.4-17.67,3.42-26,24.45-26,35.43a16.48,16.48,0,0,0,.51,4.24l0,0s0,.09,0,.14c.06.21.12.41.19.62l.21.59.24.58c.09.19.18.37.28.55s.18.35.28.52.25.38.38.56.22.31.34.46a7.06,7.06,0,0,0,.69.76l.37.32.53.44.44.3.59.35.48.25a7.37,7.37,0,0,0,.7.3l.47.19c.33.11.67.2,1,.29l.27.07c.44.1.91.18,1.39.24l.5,0c.34,0,.68.06,1,.07h.61c.35,0,.71,0,1.07,0s.43,0,.65,0l1.23-.11.59-.07c.62-.08,1.26-.18,1.92-.31a35.2,35.2,0,0,0,3.64-.91l.09,0a33.67,33.67,0,0,0,3.37-1.22l.14-.05c1.07-.45,2.11-1,3.12-1.5l.15-.07c1-.55,2-1.13,2.92-1.75l.14-.09c.95-.63,1.86-1.29,2.74-2l.11-.08c.89-.71,1.74-1.44,2.57-2.2l.06-.06c.84-.77,1.64-1.56,2.42-2.38l0,0c.92-1,1.8-2,2.63-3a14.28,14.28,0,0,0,.37,3.08h0a10.51,10.51,0,0,0,.43,1.34l.09.24a9,9,0,0,0,.58,1.16l.1.15a8.56,8.56,0,0,0,.71.94l.09.11a6.88,6.88,0,0,0,.91.79l.2.14a6.46,6.46,0,0,0,1.07.58l.12.05a6.69,6.69,0,0,0,1.15.33l.22,0a7.44,7.44,0,0,0,1.36.1h.29a11.08,11.08,0,0,0,1.56-.17,11.61,11.61,0,0,0,1.16-.3l.37-.14.74-.29.42-.2c.22-.11.44-.22.65-.34l.41-.24c.21-.12.42-.25.62-.39l.37-.25.62-.45.31-.24c.24-.19.47-.38.69-.58l.16-.13c.28-.25.55-.5.8-.75l0,0c.24-.23.46-.46.68-.68l0,0h0a24.29,24.29,0,0,0,2.17-2.62l-2.23,6.05c-1.82,1.34-6.86,4.46-9.5,6.21-4.46,3-9.33,7.67-9.41,13.47a8,8,0,0,0,1.22,4.46l0,.07a5.78,5.78,0,0,0,.82,1,.47.47,0,0,0,.1.1,6,6,0,0,0,1,.78l.05,0a6.15,6.15,0,0,0,1.25.55l.11,0a8.94,8.94,0,0,0,1.44.3l.28,0a10.8,10.8,0,0,0,1.63,0l.29,0a14.27,14.27,0,0,0,1.95-.25c9.91-1.91,14.86-11.13,18.25-20,.58-1.76,1.82-5.06,1.82-5.06.86-.56,1.71-1.13,2.56-1.72.56-.38,1.11-.78,1.66-1.17l.85-.6c.64-.47,1.28-1,1.91-1.45l.57-.43c.65-.51,1.29-1.05,1.93-1.59l.52-.43c.63-.54,1.26-1.12,1.89-1.71.17-.16.35-.31.52-.48.61-.58,1.21-1.2,1.82-1.82l.57-.58c.58-.61,1.15-1.27,1.72-1.93l.65-.73c.54-.65,1.07-1.34,1.61-2,.21-.27.43-.52.64-.8h0l.33-.42a13.34,13.34,0,0,0,.36,2.68h0a12.3,12.3,0,0,0,.46,1.45l0,0a7.65,7.65,0,0,0,1.45,2.33l.06.08a6.74,6.74,0,0,0,.95.82l.13.09a6.54,6.54,0,0,0,2.4,1l.23,0a8.7,8.7,0,0,0,1.38.1h.28a13.51,13.51,0,0,0,1.6-.18c7.27-1.41,13-9.37,13-9.37s1.07,6.65,9.66,5c.5-.1,1-.23,1.5-.37l.48-.16c.33-.1.66-.21,1-.34l.57-.23.88-.39.57-.28c.29-.15.58-.31.86-.48l.55-.31c.35-.21.7-.44,1.05-.68l.7-.5.87-.66.62-.5.47-.39v0c.63-.54,1.25-1.11,1.86-1.72l-1.47,3.92,13.13-2.54,11.15-29.66c3.47-4.64,7.27-7.27,9.25-7.66a3,3,0,0,1,.88,0,.45.45,0,0,1,.11,0,2.11,2.11,0,0,1,.6.18,1.24,1.24,0,0,1,.64,1.14c0,1.32-1.4,5-2.89,9-2.57,6.85-6,15.92-8.69,23.07h0c-.25.67-.49,1.33-.73,2l13.22-2.56,11.07-29.72c3.46-4.48,7.26-7.19,9.33-7.59a2.79,2.79,0,0,1,.85,0,1.88,1.88,0,0,1,.42.14,1.3,1.3,0,0,1,.88,1.31c0,1.24-1.33,4.71-2.89,8.9l-1.16,3.28c-2.63,7-3.38,12.06-2.66,15.37h0c0,.06,0,.11.06.18a8,8,0,0,0,.36,1.17c.05.12.12.23.18.35a5,5,0,0,0,.44.79c.08.12.17.23.26.34a5.88,5.88,0,0,0,.53.58l.35.28a5.23,5.23,0,0,0,.63.41l.42.22a5.73,5.73,0,0,0,.73.26l.48.14c.27.06.56.09.84.13l.52.05a8.72,8.72,0,0,0,1,0h.49c.52,0,1.07-.12,1.64-.23a17.07,17.07,0,0,0,2.18-.57c.27-.09.54-.23.82-.33s.86-.32,1.29-.52.69-.38,1-.56.67-.35,1-.55.76-.51,1.14-.77.57-.37.85-.58.79-.64,1.19-1c.24-.2.49-.39.73-.6.41-.36.81-.76,1.21-1.15.22-.21.44-.41.66-.63.41-.42.81-.87,1.21-1.32l.6-.65c.41-.47.8-1,1.2-1.46l.49-.59h0c.08-.1.16-.19.23-.29a11.48,11.48,0,0,0,.28,1.66l0,0s0,.08,0,.13a8.45,8.45,0,0,0,.31.93,6.63,6.63,0,0,0,.25.67,7.72,7.72,0,0,0,.43.75,4.33,4.33,0,0,0,.38.54,4.83,4.83,0,0,0,.53.57,4.15,4.15,0,0,0,.51.43,5.35,5.35,0,0,0,.61.4,9.86,9.86,0,0,0,1.29.55c.26.07.53.12.8.17s.43.09.65.11.68,0,1,0h.57a13.07,13.07,0,0,0,1.71-.21c9.49-1.84,17.75-13,24.11-25.4h0c3.64-7.07,7.93-16.57,11.24-17.21,1-.19,1.15.52,1.15,2,0,3.38-.91,9-1.57,14.09l-16.32,20h0l-1.76,2.16,9.49-1.84,7.85-9.69c.08.53.18,1,.3,1.5h0a7.61,7.61,0,0,0,3.55,5.12l.06,0a6.77,6.77,0,0,0,1.27.52l.14,0a7.65,7.65,0,0,0,1.38.25l.18,0a10.81,10.81,0,0,0,1.51,0H406a13,13,0,0,0,1.7-.23c10.24-2,19.33-13.65,25.44-25.65a3.06,3.06,0,0,0-.35-.56l-.11-.12a3.66,3.66,0,0,0-.39-.4l0,0ZM192.57,176.33a1.58,1.58,0,0,1-2.06-1.67,2.61,2.61,0,0,1,.05-.48l.06-.27a3.4,3.4,0,0,1,.12-.34c0-.09.07-.18.11-.27A2.68,2.68,0,0,1,191,173l.15-.27.23-.33c.07-.09.12-.17.19-.25s.19-.23.28-.34l.21-.24.34-.34.2-.21.41-.36.17-.16.6-.5c.46-.39.9-.74,1.35-1.08l.43-.32,1-.73c.55-.38,1.1-.76,1.68-1.18h0c.54-.38,1.11-.8,1.71-1.27C197.2,173.45,194.39,176,192.57,176.33Zm-21.31-42.79c-1.65,4.2-4.13,8.15-11.73,8.3,0,0,.27-.71.77-1.79a1.63,1.63,0,0,1,.09-.19l.28-.61c.05-.1.1-.19.14-.29l.33-.65.15-.29c.16-.31.34-.64.52-1a.64.64,0,0,0,.08-.14c.17-.28.34-.58.52-.87a3.21,3.21,0,0,1,.19-.31c.16-.26.32-.52.49-.78l.19-.29.73-1,.06-.08c.23-.3.47-.59.71-.88.08-.1.17-.19.25-.28s.4-.45.61-.66l.25-.25c.29-.28.59-.55.89-.8l0,0a10.18,10.18,0,0,1,.89-.62l.28-.17c.24-.14.48-.26.72-.37l.3-.12a6.18,6.18,0,0,1,1-.31,3.14,3.14,0,0,1,.88-.07,1.9,1.9,0,0,1,.36.08C172.59,129.45,172.13,131.36,171.26,133.54Zm27.42,11c0-5.29,6.11-21.91,12.64-23.18a3.19,3.19,0,0,1,.59-.06h.18a2,2,0,0,1,.35,0l.19,0,.27.08.18.08.22.11.16.11.18.14.15.14.14.16s.09.1.13.16.07.11.11.17l.12.18a6.26,6.26,0,0,1,.66,2.59l-5.37,14.25s-3.71,6.67-8.25,7.55C199.67,147.36,198.68,146.65,198.68,144.5ZM247,135.15c0-5.29,6.11-21.92,12.63-23.18a4.76,4.76,0,0,1,.61-.07h.19l.35,0,.21,0,.26.07.2.08.21.11.18.12.17.13.17.16.11.12.17.21.07.1.16.26a6.26,6.26,0,0,1,.66,2.54L258,130.13s-3.8,6.68-8.34,7.56C248,138,247,137.3,247,135.15Z"/><path class="cls-1" d="M386.46,199.94a94.93,94.93,0,0,0-15.34-9.49C359.77,261.53,298,316,223.81,316c-67.64,0-124.9-45.26-143.11-107.09-.17-.55-.31-1.12-.47-1.67-.38-1.34-.74-2.68-1.08-4-.15-.58-.29-1.16-.43-1.75-.45-1.85-.87-3.71-1.24-5.59l-.2.06h0a48.53,48.53,0,0,1-13.53,2.48L60,198.5a164.05,164.05,0,0,0,5.58,21.29l-.36-1c.22.67.46,1.33.69,2s.48,1.44.74,2.16q.83,2.33,1.72,4.62c.24.62.5,1.24.75,1.86.49,1.21,1,2.42,1.5,3.62.31.7.62,1.4.94,2.1.46,1,.92,2,1.4,3,.33.7.66,1.4,1,2.09.53,1.09,1.08,2.17,1.64,3.25l.89,1.73c.85,1.58,1.72,3.16,2.62,4.72.28.49.58,1,.87,1.46.67,1.13,1.34,2.26,2,3.37.37.61.76,1.2,1.14,1.8.66,1,1.33,2.05,2,3.07.38.57.75,1.13,1.14,1.69q1.26,1.83,2.58,3.62c.23.33.46.66.7,1q1.67,2.25,3.42,4.44c.34.44.7.87,1.05,1.3q1.29,1.59,2.61,3.15l1.3,1.5c.88,1,1.77,2,2.68,3,.4.44.8.89,1.21,1.32q1.95,2.1,4,4.14h0a166.85,166.85,0,0,0,236,0,168.7,168.7,0,0,0,16.08-18.58,166.2,166.2,0,0,0,15.78-25.81q2.66-5.4,4.92-11a165.23,165.23,0,0,0,8.7-28.88l-.8-.62Z"/><path class="cls-1" d="M315.6,228.29l-.09-.09a3,3,0,0,0-.49-.44h0a4,4,0,0,0-2.6-.76c-4.52,8.64-8.79,13.9-11.3,14.41-.65.12-1.33-.07-1.14-1.93a2.6,2.6,0,0,1,0-.26c0-.15,0-.31.07-.47s.05-.23.07-.34.07-.33.11-.52a3,3,0,0,0,.08-.32c.05-.17.09-.34.14-.53s.07-.25.11-.37l.19-.62.12-.4.26-.75c0-.13.08-.26.13-.39.14-.4.29-.82.46-1.27L314.56,199l-10,2-6.78,18.08s-1.45-4.8-7.41-3.59c-7.76,1.57-13,11.32-15.58,19.64-4.35,8.27-8.54,13.31-11,13.8-.64.14-1.33,0-1.14-1.9l0-.26c0-.13,0-.28.07-.42l.06-.34c0-.18.08-.37.13-.57s.05-.21.08-.32.09-.34.14-.53.07-.25.11-.38.11-.4.18-.61.08-.27.13-.41.16-.49.25-.75.08-.26.13-.4c.14-.4.29-.82.46-1.27l3.08-8.1c1.32-3.53,1.88-5.78,1.88-7.48a6.34,6.34,0,0,0-.15-1.35c0-.11-.06-.21-.09-.32a4.11,4.11,0,0,0-.33-.83s0-.12-.07-.18a.17.17,0,0,0,0,.07c-.89-1.53-2.69-2.18-5.4-1.63-5.34,1.08-10,5.85-10.3,6.23l1.26-3.43h0l.06-.17-1.29.26-8.7,1.76-6.33,16.92-.51.95-5.25,14.42h0l-.36,1-.7,1.92v.08l9.94-2,8.48-22.63c2.64-3.54,5.53-5.57,7-5.88a2.07,2.07,0,0,1,.6,0,.78.78,0,0,1,.22,0,1,1,0,0,1,.88,1c0,.94-1,3.53-2.2,6.79l-.94,2.51c-1.92,5.18-2.51,8.94-2,11.46h0v0a5.68,5.68,0,0,0,.78,2,1.26,1.26,0,0,0,.13.17,3.58,3.58,0,0,0,.47.55,2.11,2.11,0,0,0,.23.19,3.54,3.54,0,0,0,.51.35l.3.15a3.54,3.54,0,0,0,.57.22l.36.1a6.49,6.49,0,0,0,.66.11l.38,0c.26,0,.52,0,.79,0s.24,0,.37,0a9.8,9.8,0,0,0,1.26-.18,13.94,13.94,0,0,0,1.79-.49c.23-.09.46-.2.69-.3s.69-.27,1-.44.56-.32.84-.48.56-.31.83-.48.61-.44.91-.66.47-.33.71-.52.63-.54,1-.83.41-.34.61-.53.65-.65,1-1l.54-.55c.33-.36.66-.75,1-1.14l.48-.56c.33-.41.65-.84,1-1.26l.38-.49h0l.22-.3a10.27,10.27,0,0,0,.19,1.4h0c0,.09.06.18.08.27a9,9,0,0,0,.29,1c.06.15.13.28.2.42a4.27,4.27,0,0,0,.35.67c.08.14.18.26.27.39a4.65,4.65,0,0,0,.45.53c.11.12.23.22.35.33s.36.27.55.4l.41.23a5.66,5.66,0,0,0,.68.27c.15,0,.3.1.46.13a6.08,6.08,0,0,0,.87.11c.15,0,.29,0,.44,0a7.82,7.82,0,0,0,1.48-.15c5.59-1.13,9.93-7.22,9.93-7.22s.81,5,7.41,3.71c7.6-1.53,13.69-10,18.59-19.52A2.06,2.06,0,0,0,315.6,228.29Zm-24.53,8.8s-2.83,5.1-6.34,5.81c-1.26.25-2-.29-2-1.92,0-.08,0-.18,0-.26s0-.39,0-.61,0-.21.05-.31.06-.46.11-.71.05-.22.07-.33c.06-.27.11-.55.18-.84a3.58,3.58,0,0,0,.09-.35c.08-.3.16-.61.25-.93,0-.14.09-.28.13-.42.1-.31.19-.62.3-.94l.19-.55c.1-.29.2-.58.31-.87l.24-.61c.11-.27.22-.55.34-.83s.21-.49.32-.73.2-.47.31-.7.24-.47.35-.71l.35-.7.39-.7c.12-.21.24-.43.36-.63s.29-.46.43-.68l.36-.56c.17-.24.34-.46.51-.68s.21-.3.32-.44.36-.4.55-.6.21-.25.32-.36.34-.3.52-.45.24-.23.37-.33a5.51,5.51,0,0,1,.61-.37c.1-.06.2-.14.3-.19a3.8,3.8,0,0,1,.93-.32,2.7,2.7,0,0,1,.84,0,1.68,1.68,0,0,1,.24.06,1.92,1.92,0,0,1,.42.16,1.07,1.07,0,0,1,.22.15,1.55,1.55,0,0,1,.27.24,1.92,1.92,0,0,1,.18.22,4.49,4.49,0,0,1,.65,2.15Z"/><path class="cls-1" d="M230.68,251.72a23.17,23.17,0,0,1-12.92,6.6c-5.11,1-6.43-1.28-6.67-3.24a2.66,2.66,0,0,1,0-.28,2.09,2.09,0,0,1,0-.25,4.68,4.68,0,0,1,0-.53v-.19l0-.26c0-.06,0-.12,0-.17s0-.15,0-.21l0-.14a.61.61,0,0,1,0-.15.52.52,0,0,0,0-.11.31.31,0,0,0,0-.08l0-.06c12.33-.79,17.67-5.69,20.47-12.3.24-.59.44-1.15.61-1.7.06-.17.1-.34.15-.51.11-.37.21-.74.28-1.09,0-.18.08-.35.11-.51.07-.37.11-.73.15-1.07,0-.12,0-.24,0-.36a10.16,10.16,0,0,0,0-1.23c0-.15,0-.29,0-.43s-.06-.49-.11-.72-.07-.31-.11-.46a5.26,5.26,0,0,0-.19-.6c0-.13-.09-.27-.15-.4l0-.06v0c-1.55-3.38-5.76-4.45-10.4-3.55-14.27,2.76-21,19.74-21,28.61a13.47,13.47,0,0,0,.41,3.42v0l0,.12c.05.17.1.34.16.5s.1.32.16.48.13.32.2.47.14.3.22.44.15.29.23.42a4.5,4.5,0,0,0,.31.45,3.52,3.52,0,0,0,.27.37,6.53,6.53,0,0,0,.56.62c.09.09.2.17.3.26s.28.24.43.35l.35.24.48.29c.13.07.25.14.39.2a5.55,5.55,0,0,0,.56.24c.13.05.25.11.38.15s.54.17.83.24l.21.06c.36.08.73.14,1.12.19l.41,0q.4,0,.84.06h.49l.87,0,.52,0,1-.1.47-.05c.51-.07,1-.15,1.56-.25,1-.2,2-.45,2.94-.73l.07,0c.94-.29,1.84-.62,2.72-1l.11,0c.87-.37,1.71-.77,2.53-1.21l.12-.06c.81-.44,1.6-.91,2.36-1.41a.41.41,0,0,1,.11-.07c.76-.51,1.5-1,2.21-1.6l.09-.07c.71-.57,1.41-1.16,2.07-1.77l0-.05q1-.93,2-1.92l0,0c.75-.79,1.46-1.6,2.13-2.42a9.07,9.07,0,0,0,.06.91l6-17.49-.07.16C239.41,238.77,236.13,246.29,230.68,251.72Zm-17-6.6.07-.16c.08-.15.15-.32.24-.49l.11-.23c.08-.17.17-.34.26-.52l.12-.24.43-.78.06-.11c.13-.23.27-.47.42-.71l.15-.25c.13-.21.26-.42.4-.62l.15-.24c.19-.28.39-.55.59-.82l.05-.07.57-.71c.07-.08.14-.15.2-.23s.33-.36.5-.53l.2-.2a8.8,8.8,0,0,1,.72-.65l0,0a8.44,8.44,0,0,1,.71-.51l.24-.13q.28-.17.57-.3l.24-.1a6.09,6.09,0,0,1,.83-.25,2.57,2.57,0,0,1,.71-.05,1.15,1.15,0,0,1,.28.06c1.08.3.71,1.85,0,3.6-1.34,3.39-3.34,6.58-9.47,6.7C213,246.56,213.24,246,213.64,245.12Z"/></g></g></svg>